<?xml version="1.0" standalone="no"?>
<!DOCTYPE svg PUBLIC "-//W3C//DTD SVG 20010904//EN"
 "http://www.w3.org/TR/2001/REC-SVG-20010904/DTD/svg10.dtd">
<svg version="1.0" xmlns="http://www.w3.org/2000/svg"
 width="200pt" height="200pt" viewBox="0 0 577 433"
 preserveAspectRatio="xMidYMid meet">

<g transform="translate(0.000000,433.000000) scale(0.100000,-0.100000)"
fill="#8a2be2" stroke="none">
<path d="M2160 2610 l0 -431 31 -80 c55 -142 187 -257 335 -293 57 -14 52 -14
-153 -15 l-213 -1 0 -244 c0 -223 2 -245 18 -252 21 -10 424 -18 458 -10 l24
6 0 193 c0 222 8 253 70 273 57 19 37 44 279 -348 l71 -116 63 -7 c76 -8 453
-3 462 7 4 3 -65 117 -152 252 l-158 245 -200 1 c-110 0 -195 4 -189 8 6 4 31
32 55 62 41 51 173 214 447 553 104 129 136 178 95 146 -10 -8 -5 3 10 24 l28
37 -285 0 c-232 0 -287 -3 -298 -14 -7 -8 -40 -49 -73 -91 -77 -99 -203 -256
-218 -272 -9 -9 -11 69 -9 330 2 188 0 370 -3 405 l-7 62 -244 0 -244 0 0
-430z"/>
</g>
</svg>
